<svg id="Layer_1" data-name="Layer 1" xmlns="http://www.w3.org/2000/svg" viewBox="0 0 159.37 15"><defs><style>.cls-1{fill:#fff;fill-rule:evenodd;}</style></defs><title>TA_Header_Logo</title><g id="TA_Wordmark-White" data-name="TA Wordmark-White"><g id="Group"><path id="Fill-1" class="cls-1" d="M56.93,8.34,59,3l2,5.39ZM60.28,0H55.19V2.28h1.59L52.84,12.72h-1V15h4.59V12.72H55.27l.79-2.11h5.79l.8,2.11H61.46V15H66V12.72h-1Z"/><polygon id="Fill-2" class="cls-1" points="0 0 0 0 0 3.96 2.29 3.96 2.29 2.29 5 2.29 5 12.71 3.33 12.71 3.33 15 8.96 15 8.96 12.71 7.29 12.71 7.29 2.29 10 2.29 10 3.96 12.29 3.96 12.29 2.29 12.29 0 0 0"/><polygon id="Fill-3" class="cls-1" points="23.33 0 23.33 2.29 25 2.29 25 6.35 18.75 6.35 18.75 2.29 20.42 2.29 20.42 0 14.79 0 14.79 2.29 16.46 2.29 16.46 12.71 14.79 12.71 14.79 15 20.42 15 20.42 12.71 18.75 12.71 18.75 8.65 25 8.65 25 12.71 23.33 12.71 23.33 15 28.96 15 28.96 12.71 27.29 12.71 27.29 2.29 28.96 2.29 28.96 0 23.33 0"/><polygon id="Fill-4" class="cls-1" points="90.21 0 90.21 2.29 91.88 2.29 91.88 6.35 85.63 6.35 85.63 2.29 87.29 2.29 87.29 0 81.67 0 81.67 2.29 83.33 2.29 83.33 12.71 81.67 12.71 81.67 15 87.29 15 87.29 12.71 85.63 12.71 85.63 8.65 91.88 8.65 91.88 12.71 90.21 12.71 90.21 15 95.83 15 95.83 12.71 94.17 12.71 94.17 2.29 95.83 2.29 95.83 0 90.21 0"/><polygon id="Fill-5" class="cls-1" points="66.88 0 66.88 0 66.88 3.96 69.17 3.96 69.17 2.29 71.88 2.29 71.88 12.71 70.21 12.71 70.21 15 75.83 15 75.83 12.71 74.17 12.71 74.17 2.29 76.88 2.29 76.88 3.96 79.17 3.96 79.17 2.29 79.17 0 66.88 0"/><polygon id="Fill-6" class="cls-1" points="126.25 0 126.25 0 126.25 3.96 128.54 3.96 128.54 2.29 131.25 2.29 131.25 12.71 129.58 12.71 129.58 15 135.21 15 135.21 12.71 133.54 12.71 133.54 2.29 136.25 2.29 136.25 3.96 138.54 3.96 138.54 2.29 138.54 0 126.25 0"/><polygon id="Fill-7" class="cls-1" points="141.04 0 141.04 2.29 142.71 2.29 142.71 12.71 141.04 12.71 141.04 15 146.67 15 146.67 12.71 145 12.71 145 2.29 146.67 2.29 146.67 0 141.04 0"/><polygon id="Fill-8" class="cls-1" points="31.46 0 31.46 2.29 33.13 2.29 33.13 12.71 31.46 12.71 31.46 15 42.92 15 42.92 12.71 42.92 11.04 40.63 11.04 40.63 12.71 35.42 12.71 35.42 8.65 39.38 8.65 39.38 6.35 35.42 6.35 35.42 2.29 40.63 2.29 40.63 3.96 42.92 3.96 42.92 0 31.46 0"/><polygon id="Fill-9" class="cls-1" points="110 11.04 107.71 11.04 107.71 12.71 102.5 12.71 102.5 2.29 104.17 2.29 104.17 0 98.54 0 98.54 2.29 100.21 2.29 100.21 12.71 98.54 12.71 98.54 15 110 15 110 11.04"/><polygon id="Fill-10" class="cls-1" points="112.5 0 112.5 2.29 114.17 2.29 114.17 12.71 112.5 12.71 112.5 15 123.96 15 123.96 12.71 123.96 11.04 121.67 11.04 121.67 12.71 116.46 12.71 116.46 8.65 120.83 8.65 120.83 6.35 116.46 6.35 116.46 2.29 121.67 2.29 121.67 3.96 123.96 3.96 123.96 0 112.5 0"/><path id="Fill-11" class="cls-1" d="M153.44,0a4.27,4.27,0,0,0-4.27,4.27v5A5.73,5.73,0,0,0,154.9,15h4.47V12.71H154.9a3.44,3.44,0,0,1-3.44-3.44v-5a2,2,0,0,1,2-2h3.64V4h2.29V0Z"/></g></g></svg>